:SAMPLES-PER-SECOND 30
:FULLY-SPECIFIED
:DEGREES
110
root  34.8556909 36.57842321 -14.29320358 10.2751379 -2.295189619 3.700763702
lowerback  -8.876839638 0.664215982 0.2544806302
upperback  -3.927599907 1.431869984 -4.288770199
thorax  1.01789999 0.8944119811 -4.450180054
lowerneck  -11.58530045 -8.298839569 -5.123350143
upperneck  11.52009964 -11.76299953 8.043359756
head  6.173163891 -5.483280659 2.261300325
lclavicle  0 -4.497500157e-015 -2.743230041e-014
lhumerus  -48.21640015 30.7887001 61.74940109
lradius  -0.07241456211 -6.507048965e-006 28.93180084
lwrist  3.192251654e-007 -3.790274832e-007 -29.94709969
lhand  -3.525115886e-031 -36.64839935 -10.60620022
lfingers  90 7.125020027 -90
lthumb  94.68388367 -25.45208931 100.7937546
rclavicle  0 -4.497500157e-015 -2.743230041e-014
rhumerus  40.97529984 -21.66610146 -46.34090042
rradius  -5.16745672e-007 2.214343908e-008 63.54510117
rwrist  0.0006954420824 -0.004670973402 -170.8699951
rhand  -3.125776626e-031 4.35255003 -6.058350086
rfingers  -90 -7.125020027 -90
rthumb  -84.33202362 -9.803057671 -59.76133728
rfemur  -12.02748775 14.90720749 12.60229683
rtibia  -0.5589485765 -0.8219379783 19.07299232
rfoot  0.6714149714 -20.90600967 -37.1643219
rtoes  4.139940262 19.58361435 -102.1855011
lfemur  -6.039356709 -16.57495117 -21.66355324
ltibia  5.686751842 0.3337828815 9.543042183
lfoot  0.5922525525 -23.58254623 35.13608551
ltoes  -8.484978676 -18.17802429 -115.5569229
111
root  34.85658901 36.57709557 -14.29137733 10.28364182 -2.219331503 3.739477396
lowerback  -8.865639687 0.6926410198 0.3120352328
upperback  -3.928621769 1.466240048 -4.314949989
thorax  1.018659949 0.9113010168 -4.507150173
lowerneck  -11.56869984 -8.346469879 -5.118559837
upperneck  11.4822998 -11.83320045 8.079950333
head  6.168943882 -5.516342163 2.269967556
lclavicle  0 -4.497500157e-015 -2.743230041e-014
lhumerus  -48.19620132 30.74679947 61.76539993
lradius  -0.07451003045 -6.507048965e-006 28.96240234
lwrist  3.192251654e-007 -3.790274832e-007 -29.98719978
lhand  -3.517815723e-031 -36.64989853 -10.69419956
lfingers  90 7.125020027 -90
lthumb  94.7028656 -25.53850937 100.8032303
rclavicle  0 -4.497500157e-015 -2.743230041e-014
rhumerus  41.77880096 -21.76429939 -46.29800034
rradius  -5.16745672e-007 2.214343908e-008 62.51240158
rwrist  0.0006954420824 -0.004670973402 -170.5440063
rhand  -3.132823478e-031 4.517710209 -5.952439785
rfingers  -90 -7.125020027 -90
rthumb  -84.23601532 -9.903201103 -59.59040451
rfemur  -12.03843117 14.82920265 12.58965969
rtibia  -0.59023875 -0.8334981799 19.10949135
rfoot  0.6270878911 -20.89980507 -37.24153519
rtoes  4.129187584 19.58479881 -102.1534195
lfemur  -5.997162819 -16.61842155 -21.72333336
ltibia  5.746899605 0.3175486922 9.453742981
lfoot  0.5906831026 -23.52083015 35.09157562
ltoes  -8.482834816 -18.17899895 -115.5500565
112
root  34.85822603 36.57577395 -14.28975683 10.29958344 -2.150553226 3.782092333
lowerback  -8.839341164 0.7220210433 0.3621346354
upperback  -3.931201458 1.502279997 -4.340630054
thorax  1.005689979 0.9290030003 -4.559500217
lowerneck  -11.54650021 -8.384819984 -5.106739998
upperneck  11.44149971 -11.89359951 8.123240471
head  6.160630226 -5.544449806 2.278980017
lclavicle  0 -4.497500157e-015 -2.743230041e-014
lhumerus  -48.13899994 30.60379982 61.84400177
lradius  -0.07657150179 -6.507048965e-006 28.9762001
lwrist  3.192251654e-007 -3.790274832e-007 -29.85899925
lhand  -3.515610935e-031 -36.67079926 -10.71790028
lfingers  90 7.125020027 -90
lthumb  94.71760559 -25.56101227 100.8277588
rclavicle  0 -4.497500157e-015 -2.743230041e-014
rhumerus  42.46110535 -21.83900261 -46.22629929
rradius  -5.16745672e-007 2.214343908e-008 61.74060059
rwrist  0.0006954420824 -0.004670973402 -170.5269928
rhand  -3.145070105e-031 4.259829998 -5.772789955
rfingers  -90 -7.125020027 -90
rthumb  -84.20963287 -10.04506111 -59.82698441
rfemur  -12.03359604 14.74273205 12.55326176
rtibia  -0.6105052829 -0.9209237695 19.10667419
rfoot  0.6241196394 -21.03527832 -37.20724869
rtoes  4.137385368 19.58598328 -102.1778793
lfemur  -5.970783234 -16.64398003 -21.7819767
ltibia  5.802816391 0.3268731236 9.371100426
lfoot  0.6101030111 -23.5233326 35.08106232
ltoes  -8.471400261 -18.17902374 -115.5134125
113
root  34.86044876 36.57485782 -14.28820092 10.3102169 -2.084877253 3.827795267
lowerback  -8.82131958 0.745444119 0.4226841629
upperback  -3.934371948 1.529760003 -4.36507988
thorax  0.9954429865 0.9423829913 -4.617300034
lowerneck  -11.54570007 -8.426190376 -5.085430145
upperneck  11.44009972 -11.95529938 8.126879692
head  6.152456284 -5.572187424 2.279369354
lclavicle  0 -4.497500157e-015 -2.743230041e-014
lhumerus  -48.07239914 30.5230999 61.86669922
lradius  -0.07861905545 -6.507048965e-006 28.91889954
lwrist  3.192251654e-007 -3.790274832e-007 -29.81209946
lhand  -3.519067976e-031 -36.64609909 -10.67959976
lfingers  90 7.125020027 -90
lthumb  94.69805145 -25.52427101 100.7978745
rclavicle  0 -4.497500157e-015 -2.743230041e-014
rhumerus  43.45949936 -21.96030045 -46.62559891
rradius  -5.16745672e-007 2.214343908e-008 60.53820038
rwrist  0.0006954420824 -0.004670973402 -169.6699982
rhand  -3.135749727e-031 4.134659767 -5.91203022
rfingers  -90 -7.125020027 -90
rthumb  -84.31228638 -9.918152809 -59.96178055
rfemur  -12.04368687 14.70199394 12.52487183
rtibia  -0.6418055296 -0.945790112 19.1373024
rfoot  0.6080365777 -21.03971672 -37.22819138
rtoes  4.145581722 19.58722496 -102.2023315
lfemur  -5.969673634 -16.70421028 -21.83569336
ltibia  5.832911491 0.3142869473 9.340167046
lfoot  0.6223781705 -23.50139809 35.06694412
ltoes  -8.464479446 -18.17884064 -115.4912338
